<svg version="1" xmlns="http://www.w3.org/2000/svg" width="346.667" height="346.667" viewBox="0 0 260.000000 260.000000"><path d="M117.5 10.5c-14.3 3.2-23.2 8.3-35.8 20.4-13.2 12.7-19.8 22.7-23.5 35.6-3 10.3-3.3 13.3-3.6 34.6-.3 14.4-.8 20.7-2 24.4-.9 2.7-1.6 6.2-1.6 7.7 0 1.6-.4 2.8-.8 2.8-1.3 0-3.9-3.2-4.6-5.8-1.8-5.8-8.7-5.2-11.7 1.1-1.1 2.3-2.7 5.3-3.6 6.8-2.2 3.4-1 10.9 2.3 14.8l2.4 2.9-5.7 3.3c-3.2 1.9-10.5 4.8-16.3 6.5-5.7 1.8-10.6 3.6-10.8 4.2-.1.5 1 1.6 2.7 2.3 1.6.7 3.2 2.1 3.4 3.1.3 1.1 1.9 2.1 3.9 2.5 2.9.6 3.1.7 1 1.2-3.1.8-3.1 2.1.1 4.4 2.2 1.7 4.4 2 17.7 2.1l15.2.1 8.4 9c7.5 8.1 8.6 9.8 10.9 16.8 1.4 4.3 2.5 9.6 2.5 11.7v3.9l-5.7 1.6c-3.2.9-7.6 2.2-9.8 2.9-2.2.8-5.9 1.9-8.2 2.5-3.2.9-5 2.3-7.7 6-3.9 5.2-6.9 11.8-8.1 17.1-1.1 5.1.6 2.7 4.5-6.3 1.9-4.2 4.6-9.2 6.1-10.9 2.4-3 2.8-3.1 4.5-1.8 1.7 1.4 1.8 1.3.6-.1-1-1.4-1-1.8.5-2.3 1-.4 1.9-.3 2.1.3.3.9 9.1 4.5 17.2 7 3.3 1 3.6 1.6 5.9 9.1 1.3 4.4 2.8 8 3.2 8 1.3 0 1.1-1.4-1.2-8.1-2.1-6-2.1-6.3-.4-11.9 1-3.2 1.5-6.9 1.1-8.3-.3-1.4.1-4.4.9-6.7 1.6-4.6 2-7.8.8-6.6-.5.4-1.6 2.8-2.5 5.4l-1.6 4.7-.1-5.6c-.1-3.1-.8-7.8-1.6-10.5s-1.5-5.2-1.5-5.6c0-.4 3.2 1.5 7.2 4.3 3.9 2.7 7.6 4.9 8 4.9 1.2 0 10.7 9.6 13.6 13.6 1.2 1.7 3.7 6.1 5.7 9.8 3.2 6.1 3.4 7 2.5 10.9-1.2 5.3-1.3 9.7-.1 9.7.5 0 1.3-2.6 1.7-5.8l.9-5.7 3.3 5.8c1.8 3.1 3.7 5.7 4.3 5.7.6 0-.1-2.1-1.6-4.7-1.5-2.7-5.2-9.4-8.2-15.1-5.9-11-17.3-24.6-22.5-26.9-6-2.6-15.8-10.1-25.8-19.8l-10.5-10.2-14.6.3c-11.1.2-15.1 0-16.5-1.1-1.7-1.2-1.4-1.4 3.1-2 2.8-.4 6.6-1.1 8.5-1.6 1.9-.4 7.9-1.1 13.3-1.5 13.6-1 12.7-2.4-2.5-4-4.5-.4-7.9-.2-11.7 1-6.1 1.8-13.7 2.1-14.6.6-.3-.6.1-1 1.1-1 .9 0 5.6-1.6 10.5-3.6l9-3.6 11.5 1.7c6.4.9 11.8 1.4 12.1 1.1.8-.8-6.4-2.3-15.6-3.3-8.9-.9-9.9-.7-22.6 4.4-3.8 1.5-5.8 1.8-8.2 1.1-3.7-1-4.4-2.8-1.2-2.8 1.2 0 6.1-1.4 11.1-3 7.9-2.7 10.6-3 22.9-3.3 7.6-.2 14.2-.7 14.6-1 .3-.4-1.2-.7-3.5-.7s-4.2-.4-4.2-1c0-1.6 5.1-2.4 8.4-1.2 1.7.6 5.2 1.4 7.8 1.7 4.3.7 4.9 1.1 8.4 6.4 2 3.1 6.7 9.2 10.3 13.6 3.7 4.4 8.2 9.9 9.9 12.2 1.8 2.3 5.6 5.7 8.5 7.6 2.8 1.9 6.3 5 7.6 6.8 11.3 15.7 47.9 52.9 52 52.9 1.2 0 1-.5-.8-1.9l-2.5-1.9 3.3-5.1c1.8-2.8 3.8-5.1 4.5-5.1 1.3 0 4 8.4 3.7 11.4-.5 3.5 1.8.6 2.4-3.2 1.6-9.5 1.4-9.2 5-9.2 2.8 0 3.3.4 3.9 3.1.3 1.7.6 4.3.6 5.7 0 4.5 1.9 1 2.3-4.3.4-4.4.7-5 2.8-5.3 13.2-1.4 27.8-3.8 33.9-5.4 11.7-3.1 19-5.9 19-7.4 0-1.7 1-1.7 4.7-.3 2.2.8 2.5 1.2 1.3 2s-1 1 .8.6c2.8-.7 4.6 2 9.9 14.6 4.2 10.2 5.8 11.1 1.9 1-7.3-18.5-9.6-20.9-20.8-21.6-5.3-.4-9-1.5-18.4-5.8-6.5-2.9-14.4-7-17.5-9.1-3.1-2.1-6.6-3.8-7.7-3.8-1.2 0-3.2-1-4.6-2.3l-2.6-2.2 2.1-7c1.2-3.8 4.4-11.5 7.1-17l5-10-.6 8.5c-.3 4.7-.8 10.1-1.1 12-.4 2.7.4 1.7 3.5-4.5 2.2-4.4 4.2-9.5 4.6-11.3.6-3 2.6-4.3 3.9-2.3.7 1.2 11.6 5.4 12.2 4.7.2-.2-1.4-3.2-3.7-6.5-4.6-6.7-8-14.7-8-18.6 0-2.3.2-2.5 2.2-1.4 1.1.6 6 1.4 10.7 1.6l8.6.5-5.7-5.1c-5.9-5.3-10-12.4-11.2-19.4l-.7-3.8 4.8 3.4c5.7 4.1 11.7 7.1 15.8 8.1 2.8.7 2.7.4-2.7-5.1-5.5-5.6-15-21.3-12.9-21.3.5 0 1.6.8 2.3 1.8 1.2 1.8 4.9 4.2 6.3 4.2.4 0-.9-2.1-2.8-4.8-1.9-2.6-4.2-6.1-5-7.8-2-4-6.7-21.3-6.7-24.8 0-3.2-3.2-15.4-6-23-6.9-18.4-29.9-39.2-47.2-42.7-2.9-.6-7-1.7-9.1-2.5-4.8-1.8-25.9-1.8-34.2.1zm34.7 1.9c2.4.7 7.5 2.3 11.4 3.5 11.8 3.6 28.7 16.8 35.9 28.1 6.8 10.6 10.4 21 14.4 41.8 1 5.6 3.3 13.2 5 16.7 1.6 3.6 2.8 6.5 2.5 6.5-.2 0-2.1-1.7-4.1-3.8-2.9-2.9-3.3-3.1-2-1 .9 1.5 1.7 3.5 1.7 4.4 0 2.8 6.9 15.9 10.6 20.3 2 2.3 3.3 4.1 2.9 4.1-1.5 0-11.4-7-13.3-9.5-1.3-1.6-2.2-4.2-2.2-6.1 0-1.8-.5-3.6-1.1-3.9-.7-.5-.8 2.3-.3 9.1.8 11.6 3.5 18.5 9.5 24.5l3.9 3.9-3.2-.1c-1.8 0-5.3-.6-7.8-1.2-4.2-1.1-4.5-1.4-5.1-5.2l-.5-4-.8 4.8c-1.2 6.8 0 12.7 4.3 21.2 2.1 4.1 3.5 7.5 3.2 7.5-.3 0-2.4-1.1-4.6-2.3-3.9-2.2-4-2.4-3.7-7.2.2-3.7 0-4.6-.7-3.5-.6.8-1.1 2.6-1.1 4 0 3.1-2.4 12.6-4.3 17.2-2.4 5.7-1-16.2 1.5-24 1.1-3.5 1.8-6.6 1.5-6.8-.3-.3-1.7 3-3.1 7.4-1.5 4.4-4.7 11.9-7.2 16.8-6.1 11.8-9 19.7-11.5 31.3-3.4 16.1-4.2 24.3-3.1 30.8.5 3.2.9 5.9.7 6.1-.1.2-1-1.9-1.9-4.5-2.6-7.4-3-17.5-1.2-28.2.9-5.2 1.5-9.6 1.2-9.8-1.2-1.2-4.6 17.5-4.6 25.7-.1 3.8-.9 8.8-2 12-1.1 3-1.9 6.7-2 8.2 0 1.6-.4 2.8-.9 2.8-1 0-2-7.8-2.2-16.5l-.1-6-1 4.5c-2 9.2-8.2 22-10.6 22-.5 0-3.9-2.8-7.6-6.3-6-5.5-6.9-6.9-8.1-11.9-1.7-7.6-.5-20 2.9-27.3 2.8-6.2 12.2-18.9 20.9-28.5 8-8.7 13.4-17.4 14.8-23.7 1.6-7.1.3-13.2-6.2-27.9-5.5-12.5-8.4-17.5-5.1-8.7 1.1 3 1.5 4.9.8 4.7-1.7-.7-9.3-11.6-11.6-16.5-2.7-6-2.5-2.9.4 7.2 1.4 4.6 2.3 8.6 2.1 8.8-.2.2-2.3-3.5-4.7-8.3-4.7-9.5-6.9-11.6-3.7-3.4 1.2 2.9 2.4 5.9 2.7 6.7.4 1.1.1 1.3-1.4.7-1-.5-3.3-1.2-5-1.7-3.6-1.1-8.6-7.9-13.3-18.3-1.6-3.6-3.2-6.6-3.5-6.6-1.2 0 6 15.2 9.6 20.3 2.4 3.3 2.2 3.6-2.3 4.3-3.1.5-3.7.1-7.9-5-2.5-3.1-6.2-8.3-8.2-11.7-2.1-3.5-3.8-5.8-3.8-5.3 0 1.4 6.9 12.5 10.7 17.1 1.9 2.4 3.1 4.3 2.7 4.3-1.2 0-10.9-7.6-16-12.7-2.7-2.6-6.4-7-8.2-9.7-1.7-2.7-3.2-4.5-3.2-3.9 0 1.7 5.8 14.2 8.1 17.4 1.1 1.6 1.4 2.6.7 2.3-2.6-1.1-8.9-10.1-13.9-19.7-2.8-5.4-5.2-9.7-5.4-9.5-.8.9 1.8 13.8 3.9 19.1l2.5 6.2-2.9-3.4c-2.9-3.4-4.7-6.6-7.1-12.6-1.8-4.6-2.1-1.6-.5 4 .9 2.7 1.3 5.1 1.1 5.4-.9.8-6.7-13.3-7.9-19.1L81.4 75l-3 4.8c-4.1 6.3-8.2 15.9-9.4 21.9-.6 2.6-1.7 11.8-2.5 20.3s-1.8 18.2-2.1 21.6c-.5 4.9-.3 6.9 1.4 10.7 2 4.5 2 4.7.2 4.7-3.3 0-5-1.2-5-3.5 0-1.3-1.3-5.2-2.8-8.7-2.2-4.9-2.6-7-2-9.8.9-4.4 2.6-19.4 2.2-19.8-.1-.2-1.2 2.8-2.4 6.8s-2.3 7-2.5 6.8c-.2-.1.4-3.7 1.2-7.8.9-4.7 1.6-14.7 1.7-27 .2-17.1.5-20.4 2.5-27 4.1-13.3 9.2-21.8 20-33.2 12.6-13.5 25.1-20.5 42.6-24.2 5.1-1 26.7-.5 30.7.8zM86.3 96.7c.9 1.8 1.7 3.4 1.7 3.6 0 .2-2.8.7-6.1 1-3.4.3-6.6 1-7.2 1.6-.8.8.7.9 5.3.5 3.6-.3 7.1-.7 7.7-.9.7-.3 2.5 1.1 3.9 3.1 3 3.9 3.9 3.9 2.5 0-1.5-3.9.2-3.2 4.3 1.9 2.1 2.5 4.6 5 5.7 5.5 1.9 1.1 1.9 1 0-3.2-6.3-14.1-7.3-18-2.4-9.9 3.6 5.9 10.5 12.4 18.8 17.7 2.6 1.6 2.4 1.2-1.5-3.2-2.5-2.8-5.5-6.9-6.8-9.2l-2.3-4.1 5.8 5.7c3.2 3.2 8.2 7.3 11.2 9.2l5.3 3.5-2.8 1.2c-1.6.7-3.9 1.2-5.2 1.3-2.9 0-1.9 2 1 2 1.6 0 1.9.5 1.6 2.5-.7 3.2-.3 3.1 3.9-.5 3.8-3.4 5.9-4 4.5-1.3-3.1 5.9-1.6 19.1 2.4 22.8 3.2 2.9 3 3.5-.6 2.5-1.6-.5-3-.5-3 0 0 1.3 2.8 2 7.9 2 3.9 0 5.2-.5 7.4-2.8 3.7-3.9 5.7-9.3 5.7-15.7 0-6.5 1.6-6.6 2.5-.2.5 3.1.1 5.7-1.4 9.7-1.1 2.9-1.9 5.5-1.7 5.7.2.2 1.3-.8 2.5-2.3 1.7-2.2 2.3-2.4 3.6-1.4 1.2 1 1.5 1 1.5-.1 0-.8-.4-2-.9-2.8-.5-.8-.7-2-.4-2.7.4-1.1 1.1-1.1 3.5.2 1.6.9 3.1 1.4 3.3 1.2.4-.4-3.2-4.9-3.9-4.8-2 .1-2.6-.1-2.6-1.1 0-.8.4-.8 1.4 0 2.3 1.9 2.8-.4.6-2.4-1.1-1-2-2.3-2-2.9 0-.5 1.7.6 3.8 2.5 5.5 5.2 8.3 7 5.1 3.4-4.1-4.7-5.8-7.6-5.3-9 .3-.7-.1-1.5-.9-1.8-.8-.3-2-2-2.6-3.8-1-2.9-.5-2.6 4.6 3.1 7.8 8.5 9.2 11.2 8.2 16.4-.4 2.2-1.2 8-1.8 12.8-1.2 10.1-3.4 15-9.9 22.1-4.9 5.2-21 16.5-29.9 21.1-6.3 3.1-15.3 5.6-20.5 5.6-7.4 0-10.7-2.3-21.2-15-11.7-14.1-20.8-27-22.7-32-2-5.3-2.1-6.1-.9-19.8 1.3-14.2 1.7-15.3 5-13.2 1.2.8 1.1 1.4-.9 4.1-2 2.7-2.1 3.1-.6 2.6 1.6-.7 1.7-.2 1.3 5.2-.2 3.6 0 5.8.5 5.4.5-.3 1.9.5 2.9 1.8l2 2.4-.7-2.5c-.4-1.4-.9-5.1-1.2-8.3-.6-6.6.8-10.9 4.3-13.2 1.3-.8 2.4-1.4 2.4-1.3 0 .2-.4 2.9-1 6.1-1.2 7.9.2 15.5 3.5 18.4l2.5 2.2-2.8.3-2.7.4 2.8.8c2.8.9 7.8.1 7.5-1.2 0-.4.9-2.8 2-5.3 1.5-3.1 2.2-6.8 2.3-11.4.1-5.7.4-6.6 1.4-5.2 1.6 2.2 2.5 2.1 2.5-.2 0-1.1.9-2.1 2.3-2.5 1.8-.5 1-1.1-5.1-4.1-4.1-1.9-8.8-3.5-10.5-3.5-1.8 0-6.5 1.6-10.4 3.7-4 2-7.5 3.4-7.8 3.1-.3-.3.1-5.2.9-10.9 1.3-8.6 2.4-12.1 6.3-19.9l4.6-9.5 2.2 7c1.2 3.8 2.9 8.4 3.8 10.2zm8.7 26.9c0 1.8-2 2.8-3.2 1.6-.6-.6-.8-2.3-.3-3.9.6-2.7.7-2.7 2.1-.9.8 1.1 1.4 2.5 1.4 3.2zm57.5 2.5c.4 1.2.3 2.5-.2 3-1.6 1.6-4.3-.2-4.3-2.7 0-3.1 3.6-3.3 4.5-.3zm-98.4 12.2c-1.3 1.3-1.5-.1-.4-3 .7-1.7.8-1.7 1.1.1.2 1-.1 2.3-.7 2.9zM87 136c0 .5.9 1 2 1 1.5 0 2 .7 2 2.4 0 2.9-1.3 4-3.9 3.1-2.3-.7-3.4-3.1-2.6-5.6.7-2 2.5-2.6 2.5-.9zm59.4 5.7c1-.4 1.5.4 1.8 2.4.3 1.6.2 3.1 0 3.4-1.1 1-6.9.4-8.7-.8-1.6-1.3-1.7-1.7-.5-4.4 1.3-2.9 1.5-3 3.7-1.6 1.3.8 2.9 1.3 3.7 1zm30.9 3.6c.7 5.2-.6 11.4-2.9 13.6-1.6 1.5-1.6 1.5-1.1-.2.4-1 1-5.3 1.3-9.7.8-8.8 1.8-10.3 2.7-3.7zm-132.4 4.3c2.5 4.2 2.4 6.7-.2 7.2-3.3.7-6.5-.8-8.7-3.8-2.8-4-1.4-7 3.4-7 2.8 0 3.8.6 5.5 3.6zm-6.4 8.4c.7 1.1-.1 1.5-5 2.4l-3 .7L33 159c2.8-2.2 4.6-2.5 5.5-1zm4.6 2.2c-3.4.9-4.7.6-3.7-1 .3-.5 2-.6 3.8-.4l3.3.5-3.4.9zm131.2 3.9c-1 1.7-3 4.5-4.6 6.2l-2.7 3.2 2.2-4c2-3.8 5.7-8.5 6.5-8.5.2 0-.4 1.4-1.4 3.1zm-139.8 12c-1.6.4-5.5.9-8.5 1.2l-5.5.5 4.9-1.7c2.7-.9 6.4-1.5 8.5-1.2l3.6.4-3 .8zM160 182c-7.9 9.2-14.8 18.8-18.3 26-3 6.2-3.2 7-3.2 18.1v11.7l-4.5-4.2c-6.8-6.2-18-19.2-18-20.9 0-.3 2.1-1.2 4.7-2.1 5.4-1.9 6.6-1.2 8.4 4.2 1.5 4.7 3.3 6.8 2.3 2.7-1.2-5.1-4-10.9-6.3-12.9-2.4-2.2-2.7-3.6-.8-3.6 4.4 0 32.4-16.6 37.6-22.4 4.7-5 3.3-2.6-1.9 3.4zm-37.4 22.4c2.3 1.8 1.5 2.7-4.3 4.9l-4.2 1.6-2.5-3.2-2.6-3.2 3.8-.6c6.3-1 7.7-1 9.8.5zm65.8 4.1c2.3 1.5 2.3 1.7 1 6.3-.7 2.6-1.7 9.9-2.1 16.2-.6 9.1-1.1 11.5-2.3 11.5-2 0-3.2-7.3-2.6-15.5.5-6.8 2.7-20 3.3-20 .2 0 1.4.7 2.7 1.5zm22.5 11.8c5.8 3 13.5 6.4 17.1 7.7 3.6 1.3 6.9 2.7 7.4 3.1 1.8 1.6-30.2 9.9-38.4 9.9-.7 0-.9-2.6-.5-7.8.6-8 2.5-18.2 3.3-18.2.3 0 5.3 2.4 11.1 5.3zm-145 14.2c-.6 2.6-1.8 4.9-2.5 5.2-.8.3-4.3-.5-7.9-1.8l-6.6-2.3 2.8-1.5c2.7-1.4 14.5-5 15.1-4.5.2.1-.2 2.3-.9 4.9zm4.1 3.9c-1.1 3.5-2.3 4.5-3.4 2.8-.5-.9 3.4-7.5 4.1-6.8.3.3 0 2.1-.7 4zm108.9 3.8c.1.5-1 .8-2.4.8-2.2 0-2.5-.3-1.9-2.8 1.2-5.5 1.6-5.8 2.9-2.2.8 1.9 1.4 3.8 1.4 4.2z"/><path d="M100.1 67.6c0 1.1.3 1.4.6.6.3-.7.2-1.6-.1-1.9-.3-.4-.6.2-.5 1.3zM101.1 78.6c0 1.1.3 1.4.6.6.3-.7.2-1.6-.1-1.9-.3-.4-.6.2-.5 1.3zM102.2 83.5c0 1.1.3 2.9.8 4 1.1 2.5 1.1-.1 0-3.5-.6-2-.8-2.1-.8-.5zM169.1 221.1c-.6 1.8-1.1 3.7-1 4.3 0 .6.7-.7 1.5-2.8.8-2.2 1.2-4.1 1-4.3-.2-.2-.9 1-1.5 2.8zM87.5 109c.3.5 1.6 1 2.8.9 2.1 0 2.1-.1.2-.9-2.8-1.2-3.7-1.2-3 0zM103 177.4c0 .9 4 1.3 4.6.5.3-.5-.6-.9-2-.9s-2.6.2-2.6.4zM113.8 178.7c.7.3 1.6.2 1.9-.1.4-.3-.2-.6-1.3-.5-1.1 0-1.4.3-.6.6z"/></svg>